<mxfile host="app.diagrams.net" modified="2023-09-15T04:48:27.538Z" agent="Mozilla/5.0 (Windows NT 10.0; Win64; x64) AppleWebKit/537.36 (KHTML, like Gecko) Chrome/116.0.0.0 Safari/537.36" version="21.7.5" etag="v5PfS6s4AdVs417JiLNw" type="github">
  <diagram name="PÃ¡gina-1" id="D3Cn-CTIhDAduTgVl9ms">
    <mxGraphModel>
      <root>
        <mxCell id="0" />
        <mxCell id="1" parent="0" />
      </root>
    </mxGraphModel>
  </diagram>
</mxfile>
